<?xml version="1.0" encoding="UTF-8" standalone="no"?>
<!-- Created with Inkscape (http://www.inkscape.org/) -->

<svg
   xmlns:dc="http://purl.org/dc/elements/1.1/"
   xmlns:cc="http://creativecommons.org/ns#"
   xmlns:rdf="http://www.w3.org/1999/02/22-rdf-syntax-ns#"
   xmlns:svg="http://www.w3.org/2000/svg"
   xmlns="http://www.w3.org/2000/svg"
   xmlns:sodipodi="http://sodipodi.sourceforge.net/DTD/sodipodi-0.dtd"
   xmlns:inkscape="http://www.inkscape.org/namespaces/inkscape"
   width="29.749565mm"
   height="33.876347mm"
   viewBox="0 0 29.749565 33.876347"
   version="1.1"
   id="svg8"
   inkscape:version="0.92.3 (2405546, 2018-03-11)"
   sodipodi:docname="logoVaimee.svg"
   inkscape:export-filename="C:\Users\reluc\Pictures\logoVaimee.png"
   inkscape:export-xdpi="385"
   inkscape:export-ydpi="385">
  <defs
     id="defs2" />
  <sodipodi:namedview
     id="base"
     pagecolor="#ffffff"
     bordercolor="#666666"
     borderopacity="1.0"
     inkscape:pageopacity="1"
     inkscape:pageshadow="2"
     inkscape:zoom="2.8"
     inkscape:cx="6.4354617"
     inkscape:cy="47.680839"
     inkscape:document-units="mm"
     inkscape:current-layer="layer1"
     showgrid="false"
     fit-margin-top="5"
     fit-margin-left="5"
     fit-margin-right="5"
     fit-margin-bottom="5"
     inkscape:window-width="1920"
     inkscape:window-height="1001"
     inkscape:window-x="-9"
     inkscape:window-y="-9"
     inkscape:window-maximized="1" />
  <metadata
     id="metadata5">
    <rdf:RDF>
      <cc:Work
         rdf:about="">
        <dc:format>image/svg+xml</dc:format>
        <dc:type
           rdf:resource="http://purl.org/dc/dcmitype/StillImage" />
        <dc:title></dc:title>
      </cc:Work>
    </rdf:RDF>
  </metadata>
  <g
     inkscape:label="Livello 1"
     inkscape:groupmode="layer"
     id="layer1"
     transform="translate(-60.471795,-118.63103)">
    <g
       id="g1347"
       transform="matrix(0.48295512,0,0,0.48295512,135.82237,-109.09802)"
       inkscape:export-xdpi="385.8313"
       inkscape:export-ydpi="385.8313">
      <path
         inkscape:transform-center-x="-3.357618e-005"
         inkscape:transform-center-y="-2.7821204e-005"
         d="m -118.28687,513.48353 -6.93346,4.00304 -6.93346,-4.00304 0,-8.00606 6.93346,-4.00304 6.93346,4.00304 z"
         inkscape:randomized="0"
         inkscape:rounded="0"
         inkscape:flatsided="true"
         sodipodi:arg2="1.0471976"
         sodipodi:arg1="0.52359878"
         sodipodi:r2="6.9334583"
         sodipodi:r1="8.0060682"
         sodipodi:cy="509.4805"
         sodipodi:cx="-125.22033"
         sodipodi:sides="6"
         id="path1313"
         style="opacity:1;vector-effect:none;fill:#03749c;fill-opacity:1;fill-rule:nonzero;stroke:none;stroke-width:1.38429999;stroke-linecap:butt;stroke-linejoin:round;stroke-miterlimit:4;stroke-dasharray:none;stroke-dashoffset:0;stroke-opacity:1;paint-order:normal"
         sodipodi:type="star" />
      <path
         inkscape:transform-center-x="-1.3496754e-005"
         inkscape:transform-center-y="-2.6011638e-005"
         d="m -110.17073,496.66304 c -0.2046,0.35437 -2.81233,1.85994 -3.22151,1.85994 -0.40919,0 -3.01692,-1.50557 -3.22151,-1.85994 -0.20459,-0.35437 -0.20459,-3.36551 0,-3.71988 0.20459,-0.35436 2.81232,-1.85994 3.22151,-1.85994 0.40918,0 3.01691,1.50558 3.22151,1.85994 0.20459,0.35437 0.20459,3.36551 0,3.71988 z"
         inkscape:randomized="0"
         inkscape:rounded="0.11"
         inkscape:flatsided="true"
         sodipodi:arg2="1.0471976"
         sodipodi:arg1="0.52359878"
         sodipodi:r2="3.221508"
         sodipodi:r1="3.7198772"
         sodipodi:cy="494.8031"
         sodipodi:cx="-113.39224"
         sodipodi:sides="6"
         id="path1315"
         style="opacity:1;vector-effect:none;fill:#f97304;fill-opacity:1;fill-rule:nonzero;stroke:none;stroke-width:0.64319032;stroke-linecap:butt;stroke-linejoin:round;stroke-miterlimit:4;stroke-dasharray:none;stroke-dashoffset:0;stroke-opacity:1;paint-order:normal"
         sodipodi:type="star" />
      <path
         inkscape:transform-center-x="-5.9411829e-006"
         inkscape:transform-center-y="-1.7590822e-006"
         d="m -128.55484,490.33788 c -0.2005,0.34729 -2.0796,1.43218 -2.48061,1.43218 -0.40101,0 -2.2801,-1.08489 -2.4806,-1.43218 -0.20051,-0.34729 -0.20051,-2.51707 0,-2.86436 0.2005,-0.34728 2.07959,-1.43218 2.4806,-1.43218 0.40101,0 2.28011,1.0849 2.48061,1.43218 0.20051,0.34729 0.20051,2.51707 0,2.86436 z"
         inkscape:randomized="0"
         inkscape:rounded="0.14"
         inkscape:flatsided="true"
         sodipodi:arg2="1.0471976"
         sodipodi:arg1="0.52359878"
         sodipodi:r2="2.4806077"
         sodipodi:r1="2.8643587"
         sodipodi:cy="488.9057"
         sodipodi:cx="-131.03545"
         sodipodi:sides="6"
         id="path1317"
         style="opacity:1;vector-effect:none;fill:#5cd4ef;fill-opacity:1;fill-rule:nonzero;stroke:none;stroke-width:0.49526578;stroke-linecap:butt;stroke-linejoin:round;stroke-miterlimit:4;stroke-dasharray:none;stroke-dashoffset:0;stroke-opacity:1;paint-order:normal"
         sodipodi:type="star" />
      <path
         sodipodi:type="star"
         style="opacity:1;vector-effect:none;fill:#5cd4ef;fill-opacity:1;fill-rule:nonzero;stroke:none;stroke-width:0.48157847;stroke-linecap:butt;stroke-linejoin:round;stroke-miterlimit:4;stroke-dasharray:none;stroke-dashoffset:0;stroke-opacity:1;paint-order:normal"
         id="path1319"
         sodipodi:sides="6"
         sodipodi:cx="-119.47799"
         sodipodi:cy="488.9057"
         sodipodi:r1="2.7851982"
         sodipodi:r2="2.4120529"
         sodipodi:arg1="0.52359878"
         sodipodi:arg2="1.0471976"
         inkscape:flatsided="true"
         inkscape:rounded="0.14"
         inkscape:randomized="0"
         d="m -117.06594,490.2983 c -0.19496,0.33769 -2.02212,1.3926 -2.41205,1.3926 -0.38993,0 -2.21709,-1.05491 -2.41205,-1.3926 -0.19497,-0.33769 -0.19497,-2.44751 0,-2.7852 0.19496,-0.33769 2.02212,-1.3926 2.41205,-1.3926 0.38993,0 2.21709,1.05491 2.41205,1.3926 0.19497,0.33769 0.19497,2.44751 0,2.7852 z"
         inkscape:transform-center-y="-1.7008041e-006"
         inkscape:transform-center-x="-4.7918353e-006" />
      <path
         inkscape:transform-center-x="-3.8066801e-006"
         inkscape:transform-center-y="-1.3511342e-006"
         d="m -123.63094,484.63837 c -0.27529,0.47682 -1.03881,0.91764 -1.58939,0.91764 -0.55058,0 -1.3141,-0.44082 -1.58939,-0.91764 -0.27529,-0.47682 -0.27529,-1.35846 0,-1.83527 0.27529,-0.47682 1.03881,-0.91764 1.58939,-0.91764 0.55058,0 1.3141,0.44082 1.58939,0.91764 0.2753,0.47681 0.2753,1.35845 0,1.83527 z"
         inkscape:randomized="0"
         inkscape:rounded="0.3"
         inkscape:flatsided="true"
         sodipodi:arg2="1.0471976"
         sodipodi:arg1="0.52359878"
         sodipodi:r2="1.5893937"
         sodipodi:r1="1.8352737"
         sodipodi:cy="483.72073"
         sodipodi:cx="-125.22033"
         sodipodi:sides="6"
         id="path1321"
         style="opacity:1;vector-effect:none;fill:#d44206;fill-opacity:1;fill-rule:nonzero;stroke:none;stroke-width:0.31733048;stroke-linecap:butt;stroke-linejoin:round;stroke-miterlimit:4;stroke-dasharray:none;stroke-dashoffset:0;stroke-opacity:1;paint-order:normal"
         sodipodi:type="star" />
      <path
         sodipodi:type="star"
         style="opacity:1;vector-effect:none;fill:#f97304;fill-opacity:1;fill-rule:nonzero;stroke:none;stroke-width:0.64319032;stroke-linecap:butt;stroke-linejoin:round;stroke-miterlimit:4;stroke-dasharray:none;stroke-dashoffset:0;stroke-opacity:1;paint-order:normal"
         id="path1323"
         sodipodi:sides="6"
         sodipodi:cx="-137.26074"
         sodipodi:cy="495.04059"
         sodipodi:r1="3.7198772"
         sodipodi:r2="3.221508"
         sodipodi:arg1="0.52359878"
         sodipodi:arg2="1.0471976"
         inkscape:flatsided="true"
         inkscape:rounded="0.11"
         inkscape:randomized="0"
         d="m -134.03923,496.90053 c -0.2046,0.35436 -2.81233,1.85994 -3.22151,1.85994 -0.40919,0 -3.01692,-1.50558 -3.22151,-1.85994 -0.20459,-0.35437 -0.20459,-3.36551 0,-3.71988 0.20459,-0.35437 2.81232,-1.85994 3.22151,-1.85994 0.40918,0 3.01691,1.50557 3.22151,1.85994 0.20459,0.35437 0.20459,3.36551 0,3.71988 z"
         inkscape:transform-center-y="-2.6011638e-005"
         inkscape:transform-center-x="-1.3496754e-005" />
      <path
         inkscape:transform-center-x="-1.3496754e-005"
         inkscape:transform-center-y="-2.6011638e-005"
         d="m -121.99882,496.7422 c -0.20459,0.35437 -2.81232,1.85994 -3.22151,1.85994 -0.40919,0 -3.01691,-1.50557 -3.22151,-1.85994 -0.20459,-0.35436 -0.20459,-3.36551 0,-3.71988 0.2046,-0.35436 2.81232,-1.85993 3.22151,-1.85993 0.40919,0 3.01692,1.50557 3.22151,1.85993 0.20459,0.35437 0.20459,3.36552 0,3.71988 z"
         inkscape:randomized="0"
         inkscape:rounded="0.11"
         inkscape:flatsided="true"
         sodipodi:arg2="1.0471976"
         sodipodi:arg1="0.52359878"
         sodipodi:r2="3.221508"
         sodipodi:r1="3.7198772"
         sodipodi:cy="494.88226"
         sodipodi:cx="-125.22033"
         sodipodi:sides="6"
         id="path1325"
         style="opacity:1;vector-effect:none;fill:#15b1d7;fill-opacity:1;fill-rule:nonzero;stroke:none;stroke-width:0.64319032;stroke-linecap:butt;stroke-linejoin:round;stroke-miterlimit:4;stroke-dasharray:none;stroke-dashoffset:0;stroke-opacity:1;paint-order:normal"
         sodipodi:type="star" />
      <path
         inkscape:connector-curvature="0"
         style="opacity:1;vector-effect:none;fill:#023d67;fill-opacity:1;fill-rule:nonzero;stroke:none;stroke-width:1.34901619;stroke-linecap:butt;stroke-linejoin:round;stroke-miterlimit:4;stroke-dasharray:none;stroke-dashoffset:0;stroke-opacity:1;paint-order:normal"
         d="m -145.6669,495.90884 v 23.61006 l 20.44658,11.80458 20.44659,-11.80458 v -23.61006 l -7.1989,4.15618 v 15.29776 l -13.24769,7.6493 -13.24856,-7.6493 v -15.29776 z"
         id="path1327" />
    </g>
  </g>
</svg>
